# xmcd
#
# Track frame offsets:
#	150
#	13277
#	28875
#	43852
#	61097
#	79850
#	102747
#	119627
#	133497
#	153242
#	167705
#	185712
#	205757
#	225270
#	244481
#	259953
#	280078
#	290170
#
# Disc length: 4039 seconds
#
# Revision: 1
# Processed by: cddbd v1.5.1PL0 Copyright (c) Steve Scherf et al.
# Submitted via: EasyCDDAExtractor 7.0.6.1
#
DISCID=190fc512
DTITLE=The Corrs - Borrowed Heaven
DYEAR=2004
DGENRE=Pop
TTITLE0=Summer Sunshine
TTITLE1=Angel
TTITLE2=Hideaway
TTITLE3=Long Night
TTITLE4=Goodbye
TTITLE5=Time Enough For Tears
TTITLE6=Humdrum
TTITLE7=Even if
TTITLE8=Borrowed Heaven
TTITLE9=Confidence For Quiet
TTITLE10=Baby Be Brave
TTITLE11=Silver Strand
TTITLE12=What Can I Do
TTITLE13=Erin Shore
TTITLE14=Would You Be Happier
TTITLE15=Only When I Sleep
TTITLE16=The Minstrel Boy
TTITLE17=Toss The Feathers
EXTD=
EXTT0=
EXTT1=
EXTT2=
EXTT3=
EXTT4=
EXTT5=
EXTT6=
EXTT7=
EXTT8=
EXTT9=
EXTT10=
EXTT11=
EXTT12=
EXTT13=
EXTT14=
EXTT15=
EXTT16=
EXTT17=
PLAYORDER=
